<?xml version="1.0" encoding="UTF-8"?>
<svg width="210px" height="51px" viewBox="0 0 210 51" version="1.1" xmlns="http://www.w3.org/2000/svg" xmlns:xlink="http://www.w3.org/1999/xlink">
    <title>assinatura</title>
    <g id="Welcome" stroke="none" stroke-width="1" fill="none" fill-rule="evenodd">
        <g id="Desktop-HD" transform="translate(-803.000000, -464.000000)" fill="#000000">
            <g id="assinatura" transform="translate(803.000000, 464.000000)">
                <path d="M8.89261682,50.4906778 C6.30392523,50.4906778 4.19273832,49.4613 2.55866355,47.4031333 C0.925373832,45.3437889 0.108140187,42.7024259 0.108140187,39.4762963 L0.108140187,3.187 C0.108140187,2.46580741 0.341691589,1.88221852 0.808401869,1.43642963 C1.27530841,0.99122963 1.84819626,0.767648148 2.52745794,0.767648148 C3.24852336,0.767648148 3.83161682,0.99122963 4.27771963,1.43642963 C4.72284112,1.88221852 4.94599065,2.46580741 4.94599065,3.187 L4.94599065,39.4762963 C4.94599065,41.301263 5.31751402,42.7870296 6.0597757,43.9332037 C6.80242991,45.0795741 7.7464486,45.6519741 8.89261682,45.6519741 L10.4837103,45.6519741 C11.1201869,45.6519741 11.6290935,45.8745741 12.0114112,46.3209519 C12.3929439,46.7659556 12.5842991,47.3497407 12.5842991,48.0713259 C12.5842991,48.7925185 12.3195421,49.3763037 11.7888505,49.8218963 C11.2585514,50.2682741 10.5682991,50.4906778 9.7204486,50.4906778 L8.89261682,50.4906778 Z M29.8796636,15.347163 C33.1892243,15.347163 36.1924206,16.1217481 38.8872897,17.6709185 C41.5815701,19.2198926 43.7033551,21.3532407 45.2522523,24.0691963 C46.8009533,26.7857407 47.5754019,29.7998704 47.5754019,33.1102111 L47.5754019,48.0713259 C47.5754019,48.7503148 47.342243,49.3233037 46.8755327,49.7902926 C46.4082336,50.2576741 45.8147383,50.4906778 45.0924953,50.4906778 C44.3714299,50.4906778 43.7779346,50.2682741 43.3112243,49.8218963 C42.8439252,49.3763037 42.6101776,48.7925185 42.6101776,48.0713259 L42.6101776,44.2515963 C41.1252617,46.288563 39.2366355,47.8911259 36.9450841,49.0579111 C34.6535327,50.2252852 32.1282336,50.8084815 29.369972,50.8084815 C26.1455888,50.8084815 23.2275701,50.0338963 20.6178785,48.4849222 C18.0079907,46.9357519 15.9501869,44.8139852 14.4436822,42.1186407 C12.9365888,39.4232963 12.1833364,36.4203556 12.1833364,33.1102111 C12.1833364,29.7998704 12.9587664,26.7857407 14.5076636,24.0691963 C16.055972,21.3532407 18.177757,19.2198926 20.8726262,17.6709185 C23.5669065,16.1217481 26.569514,15.347163 29.8796636,15.347163 Z M29.8796636,46.3525556 C32.2985888,46.3525556 34.4837664,45.7795667 36.4359813,44.6331963 C38.3876075,43.4876111 39.9259065,41.9066407 41.0506822,39.8906778 C42.1756542,37.8743222 42.7381402,35.6139704 42.7381402,33.1102111 C42.7381402,30.6056667 42.1756542,28.3453148 41.0506822,26.3295481 C39.9259065,24.3129963 38.3876075,22.7222111 36.4359813,21.5546407 C34.4837664,20.3878556 32.2985888,19.8036778 29.8796636,19.8036778 C27.4613271,19.8036778 25.2647664,20.3878556 23.2909626,21.5546407 C21.3181402,22.7222111 19.7688505,24.3129963 18.6450561,26.3295481 C17.5200841,28.3453148 16.9575981,30.6056667 16.9575981,33.1102111 C16.9575981,35.6139704 17.5200841,37.8743222 18.6450561,39.8906778 C19.7688505,41.9066407 21.3181402,43.4876111 23.2909626,44.6331963 C25.2647664,45.7795667 27.4613271,46.3525556 29.8796636,46.3525556 L29.8796636,46.3525556 Z" id="Fill-14"></path>
                <path d="M79.1295701,50.4906778 C76.5402897,50.4906778 74.4296916,49.4613 72.7956168,47.4031333 C71.1617383,45.3437889 70.3445047,42.7024259 70.3445047,39.4762963 L70.3445047,3.187 C70.3445047,2.46580741 70.5780561,1.88221852 71.0453551,1.43642963 C71.5122617,0.99122963 72.0851495,0.767648148 72.7640187,0.767648148 C73.4848879,0.767648148 74.0685701,0.99122963 74.5140841,1.43642963 C74.9592056,1.88221852 75.1829439,2.46580741 75.1829439,3.187 L75.1829439,39.4762963 C75.1829439,41.301263 75.5538785,42.7870296 76.2961402,43.9332037 C77.0387944,45.0795741 77.9834019,45.6519741 79.1295701,45.6519741 L80.7200748,45.6519741 C81.3571402,45.6519741 81.8660467,45.8745741 82.2477757,46.3209519 C82.6298972,46.7659556 82.8206636,47.3497407 82.8206636,48.0713259 C82.8206636,48.7925185 82.5559065,49.3763037 82.025215,49.8218963 C81.4955047,50.2682741 80.8052523,50.4906778 79.9568131,50.4906778 L79.1295701,50.4906778 Z" id="Fill-15"></path>
                <path d="M99.0980187,15.347163 C102.238402,15.347163 105.01786,16.0795444 107.436785,17.5439148 C109.855121,19.0078926 111.733346,21.0344556 113.07028,23.6236037 C114.407019,26.2125556 115.07529,29.1628889 115.07529,32.4730333 C115.07529,33.1518259 114.862738,33.6932111 114.438813,34.0966 C114.014299,34.4995963 113.462411,34.7019778 112.783738,34.7019778 L87.0671776,34.7019778 C87.406514,38.1819185 88.7652336,41.0042667 91.140785,43.1692185 C93.5173178,45.3331889 96.4881308,46.4159593 100.052636,46.4159593 C101.580336,46.4159593 103.118636,46.1505667 104.667336,45.6197815 C106.216234,45.0899778 107.457393,44.4211963 108.391402,43.6144185 C108.94329,43.1904185 109.516374,42.9784185 110.110065,42.9784185 C110.577364,42.9784185 111.044075,43.1482148 111.510196,43.4876111 C112.062084,43.9966074 112.338028,44.5692037 112.338028,45.2063815 C112.338028,45.7583667 112.105065,46.2463593 111.63757,46.6703593 C110.237439,47.8593259 108.455383,48.8459111 106.290813,49.6310963 C104.126636,50.4162815 102.047047,50.8084815 100.052636,50.8084815 C96.6578972,50.8084815 93.6236916,50.0550963 90.9498224,48.5489148 C88.2761495,47.0419481 86.1871402,44.9409889 84.6800467,42.2456444 C83.1735421,39.5508889 82.4202897,36.5049593 82.4202897,33.1102111 C82.4202897,29.6718852 83.1311495,26.6053444 84.5532617,23.91 C85.974,21.2146556 87.948,19.1136963 90.472514,17.6073185 C92.9978131,16.1005481 95.8728505,15.347163 99.0980187,15.347163 Z M99.0980187,19.7402741 C95.8728505,19.7402741 93.1997664,20.737263 91.077785,22.7326148 C88.956,24.7275741 87.6614579,27.3589259 87.1945514,30.6266704 L110.492187,30.6266704 C110.152262,27.3589259 108.964486,24.7275741 106.927682,22.7326148 C104.889897,20.737263 102.280206,19.7402741 99.0980187,19.7402741 L99.0980187,19.7402741 Z" id="Fill-16"></path>
                <path d="M134.534047,45.5885704 C135.213897,45.5885704 135.764607,45.8211815 136.18971,46.288563 C136.613636,46.7555519 136.825598,47.3497407 136.825598,48.0713259 C136.825598,48.7503148 136.571832,49.3233037 136.061748,49.7902926 C135.552645,50.2576741 134.916364,50.4906778 134.152514,50.4906778 L132.816168,50.4906778 C130.566813,50.4906778 128.550813,49.9492926 126.768757,48.8671111 C124.986308,47.7849296 123.597168,46.3209519 122.598981,44.474 C121.602168,42.6278333 121.103664,40.5372778 121.103664,38.2031185 L121.103664,21.2042519 L116.965682,21.2042519 C116.286421,21.2042519 115.746112,21.0026556 115.342794,20.5998556 C114.939477,20.1970556 114.737523,19.6972852 114.737523,19.1036852 C114.737523,18.4670963 114.939477,17.9469111 115.342794,17.5439148 C115.746112,17.1405259 116.286421,16.9391259 116.965682,16.9391259 L121.103664,16.9391259 L121.103664,7.07091852 C121.103664,6.34913704 121.326224,5.75494815 121.772327,5.28795926 C122.217449,4.82057778 122.800542,4.58796667 123.522589,4.58796667 C124.243654,4.58796667 124.83715,4.82057778 125.304449,5.28795926 C125.771355,5.75494815 126.004907,6.34913704 126.004907,7.07091852 L126.004907,16.9391259 L133.19829,16.9391259 C133.876963,16.9391259 134.41786,17.1405259 134.820589,17.5439148 C135.224495,17.9469111 135.42586,18.4670963 135.42586,19.1036852 C135.42586,19.6972852 135.224495,20.1970556 134.820589,20.5998556 C134.41786,21.0026556 133.876963,21.2042519 133.19829,21.2042519 L126.004907,21.2042519 L126.004907,38.2031185 C126.004907,40.3682667 126.641383,42.1398407 127.914925,43.5186259 C129.187682,44.8985889 130.821757,45.5885704 132.816168,45.5885704 L134.534047,45.5885704 Z" id="Fill-17"></path>
                <path d="M151.456121,45.5885704 C152.135972,45.5885704 152.686682,45.8211815 153.111589,46.288563 C153.535514,46.7555519 153.747477,47.3497407 153.747477,48.0713259 C153.747477,48.7503148 153.493907,49.3233037 152.983822,49.7902926 C152.47472,50.2576741 151.838243,50.4906778 151.074393,50.4906778 L149.738047,50.4906778 C147.488888,50.4906778 145.472692,49.9492926 143.690832,48.8671111 C141.908187,47.7849296 140.519047,46.3209519 139.521056,44.474 C138.524047,42.6278333 138.025542,40.5372778 138.025542,38.2031185 L138.025542,21.2042519 L133.887561,21.2042519 C133.208888,21.2042519 132.668187,21.0026556 132.264869,20.5998556 C131.861551,20.1970556 131.659991,19.6972852 131.659991,19.1036852 C131.659991,18.4670963 131.861551,17.9469111 132.264869,17.5439148 C132.668187,17.1405259 133.208888,16.9391259 133.887561,16.9391259 L138.025542,16.9391259 L138.025542,7.07091852 C138.025542,6.34913704 138.248103,5.75494815 138.694402,5.28795926 C139.139327,4.82057778 139.722421,4.58796667 140.444467,4.58796667 C141.165533,4.58796667 141.759813,4.82057778 142.226523,5.28795926 C142.693234,5.75494815 142.926981,6.34913704 142.926981,7.07091852 L142.926981,16.9391259 L150.120364,16.9391259 C150.799037,16.9391259 151.339738,17.1405259 151.742467,17.5439148 C152.146374,17.9469111 152.347935,18.4670963 152.347935,19.1036852 C152.347935,19.6972852 152.146374,20.1970556 151.742467,20.5998556 C151.339738,21.0026556 150.799037,21.2042519 150.120364,21.2042519 L142.926981,21.2042519 L142.926981,38.2031185 C142.926981,40.3682667 143.563262,42.1398407 144.836804,43.5186259 C146.109757,44.8985889 147.743636,45.5885704 149.738047,45.5885704 L151.456121,45.5885704 Z" id="Fill-18"></path>
                <path d="M173.808953,15.2831704 C175.591402,15.2831704 177.00272,15.5169593 178.042514,15.9843407 C179.081327,16.4511333 179.602009,17.1083333 179.602009,17.9573148 C179.602009,18.2123037 179.580813,18.4031037 179.538028,18.5305 C179.367869,19.1242963 179.103505,19.5282741 178.742383,19.7402741 C178.381458,19.9522741 177.882953,20.0584704 177.246477,20.0584704 C176.864355,20.0584704 176.206093,20.0162667 175.273262,19.9310741 C174.933336,19.8882815 174.424822,19.8676704 173.745561,19.8676704 C170.563178,19.8676704 167.964084,20.7162593 165.947888,22.4144185 C163.93228,24.1115963 162.92428,26.3189481 162.92428,29.0352963 L162.92428,48.0713259 C162.92428,48.8353111 162.712318,49.4296963 162.287215,49.8536963 C161.86329,50.2786778 161.269206,50.4906778 160.505355,50.4906778 C159.741505,50.4906778 159.147421,50.2786778 158.722907,49.8536963 C158.298981,49.4296963 158.087019,48.8353111 158.087019,48.0713259 L158.087019,18.0853 C158.087019,17.3213148 158.298981,16.726537 158.722907,16.3019481 C159.147421,15.8779481 159.741505,15.6655556 160.505355,15.6655556 C161.269206,15.6655556 161.86329,15.8779481 162.287215,16.3019481 C162.712318,16.726537 162.92428,17.3213148 162.92428,18.0853 L162.92428,20.8864481 C164.154841,19.1036852 165.724935,17.7243111 167.634757,16.7483259 C169.543991,15.771163 171.601991,15.2831704 173.808953,15.2831704" id="Fill-19"></path>
                <path d="M193.852963,15.347163 C196.993542,15.347163 199.773589,16.0795444 202.191925,17.5439148 C204.61085,19.0078926 206.489075,21.0344556 207.825813,23.6236037 C209.162748,26.2125556 209.830822,29.1628889 209.830822,32.4730333 C209.830822,33.1518259 209.618271,33.6932111 209.193953,34.0966 C208.770028,34.4995963 208.21814,34.7019778 207.539271,34.7019778 L181.822907,34.7019778 C182.161654,38.1819185 183.520178,41.0042667 185.896318,43.1692185 C188.273047,45.3331889 191.243271,46.4159593 194.808168,46.4159593 C196.335869,46.4159593 197.874168,46.1505667 199.423065,45.6197815 C200.971766,45.0899778 202.212925,44.4211963 203.147131,43.6144185 C203.699019,43.1904185 204.271514,42.9784185 204.865598,42.9784185 C205.332308,42.9784185 205.799607,43.1482148 206.265336,43.4876111 C206.817224,43.9966074 207.093168,44.5692037 207.093168,45.2063815 C207.093168,45.7583667 206.860009,46.2463593 206.393299,46.6703593 C204.992383,47.8593259 203.210523,48.8459111 201.046346,49.6310963 C198.882168,50.4162815 196.802776,50.8084815 194.808168,50.8084815 C191.41343,50.8084815 188.378636,50.0550963 185.705551,48.5489148 C183.031879,47.0419481 180.94228,44.9409889 179.435579,42.2456444 C177.929075,39.5508889 177.175822,36.5049593 177.175822,33.1102111 C177.175822,29.6718852 177.886879,26.6053444 179.308794,23.91 C180.729729,21.2146556 182.702944,19.1136963 185.228243,17.6073185 C187.753346,16.1005481 190.628579,15.347163 193.852963,15.347163 Z M193.852963,19.7402741 C190.628579,19.7402741 187.95471,20.737263 185.832925,22.7326148 C183.711533,24.7275741 182.416402,27.3589259 181.949692,30.6266704 L205.24772,30.6266704 C204.907794,27.3589259 203.719626,24.7275741 201.682822,22.7326148 C199.645626,20.737263 197.035738,19.7402741 193.852963,19.7402741 L193.852963,19.7402741 Z" id="Fill-20"></path>
            </g>
        </g>
    </g>
</svg>